<mxfile host="Electron" modified="2023-10-24T08:28:23.169Z" agent="Mozilla/5.0 (Windows NT 10.0; Win64; x64) AppleWebKit/537.36 (KHTML, like Gecko) draw.io/21.7.5 Chrome/114.0.5735.289 Electron/25.8.1 Safari/537.36" etag="9cVZT0kaPf5Ye1pvGWT_" version="21.7.5" type="device">
  <diagram id="C5RBs43oDa-KdzZeNtuy" name="Page-1">
    <mxGraphModel dx="1700" dy="827" grid="1" gridSize="10" guides="1" tooltips="1" connect="1" arrows="1" fold="1" page="1" pageScale="1" pageWidth="827" pageHeight="1169" math="0" shadow="0">
      <root>
        <mxCell id="WIyWlLk6GJQsqaUBKTNV-0" />
        <mxCell id="WIyWlLk6GJQsqaUBKTNV-1" parent="WIyWlLk6GJQsqaUBKTNV-0" />
        <mxCell id="GgZVNmPCMcxNd7WETc2Y-8" value="" style="edgeStyle=orthogonalEdgeStyle;rounded=0;orthogonalLoop=1;jettySize=auto;html=1;" edge="1" parent="WIyWlLk6GJQsqaUBKTNV-1" source="GgZVNmPCMcxNd7WETc2Y-0" target="GgZVNmPCMcxNd7WETc2Y-1">
          <mxGeometry relative="1" as="geometry" />
        </mxCell>
        <mxCell id="GgZVNmPCMcxNd7WETc2Y-0" value="start" style="ellipse;whiteSpace=wrap;html=1;" vertex="1" parent="WIyWlLk6GJQsqaUBKTNV-1">
          <mxGeometry x="280" y="30" width="100" height="50" as="geometry" />
        </mxCell>
        <mxCell id="GgZVNmPCMcxNd7WETc2Y-9" value="" style="edgeStyle=orthogonalEdgeStyle;rounded=0;orthogonalLoop=1;jettySize=auto;html=1;" edge="1" parent="WIyWlLk6GJQsqaUBKTNV-1" source="GgZVNmPCMcxNd7WETc2Y-1" target="GgZVNmPCMcxNd7WETc2Y-2">
          <mxGeometry relative="1" as="geometry" />
        </mxCell>
        <mxCell id="GgZVNmPCMcxNd7WETc2Y-1" value="int array [] = new int [60]" style="shape=hexagon;perimeter=hexagonPerimeter2;whiteSpace=wrap;html=1;fixedSize=1;" vertex="1" parent="WIyWlLk6GJQsqaUBKTNV-1">
          <mxGeometry x="245" y="120" width="170" height="50" as="geometry" />
        </mxCell>
        <mxCell id="GgZVNmPCMcxNd7WETc2Y-10" value="" style="edgeStyle=orthogonalEdgeStyle;rounded=0;orthogonalLoop=1;jettySize=auto;html=1;" edge="1" parent="WIyWlLk6GJQsqaUBKTNV-1" source="GgZVNmPCMcxNd7WETc2Y-2" target="GgZVNmPCMcxNd7WETc2Y-4">
          <mxGeometry relative="1" as="geometry" />
        </mxCell>
        <mxCell id="GgZVNmPCMcxNd7WETc2Y-2" value="i = 0" style="rounded=0;whiteSpace=wrap;html=1;" vertex="1" parent="WIyWlLk6GJQsqaUBKTNV-1">
          <mxGeometry x="285" y="200" width="90" height="40" as="geometry" />
        </mxCell>
        <mxCell id="GgZVNmPCMcxNd7WETc2Y-11" value="" style="edgeStyle=orthogonalEdgeStyle;rounded=0;orthogonalLoop=1;jettySize=auto;html=1;" edge="1" parent="WIyWlLk6GJQsqaUBKTNV-1" source="GgZVNmPCMcxNd7WETc2Y-4" target="GgZVNmPCMcxNd7WETc2Y-5">
          <mxGeometry relative="1" as="geometry" />
        </mxCell>
        <mxCell id="GgZVNmPCMcxNd7WETc2Y-4" value="i &amp;lt; array.length" style="rhombus;whiteSpace=wrap;html=1;" vertex="1" parent="WIyWlLk6GJQsqaUBKTNV-1">
          <mxGeometry x="255" y="280" width="150" height="60" as="geometry" />
        </mxCell>
        <mxCell id="GgZVNmPCMcxNd7WETc2Y-12" value="" style="edgeStyle=orthogonalEdgeStyle;rounded=0;orthogonalLoop=1;jettySize=auto;html=1;" edge="1" parent="WIyWlLk6GJQsqaUBKTNV-1" source="GgZVNmPCMcxNd7WETc2Y-5" target="GgZVNmPCMcxNd7WETc2Y-6">
          <mxGeometry relative="1" as="geometry" />
        </mxCell>
        <mxCell id="GgZVNmPCMcxNd7WETc2Y-5" value="input array [i]" style="shape=parallelogram;perimeter=parallelogramPerimeter;whiteSpace=wrap;html=1;fixedSize=1;" vertex="1" parent="WIyWlLk6GJQsqaUBKTNV-1">
          <mxGeometry x="270" y="380" width="120" height="60" as="geometry" />
        </mxCell>
        <mxCell id="GgZVNmPCMcxNd7WETc2Y-13" value="" style="edgeStyle=orthogonalEdgeStyle;rounded=0;orthogonalLoop=1;jettySize=auto;html=1;" edge="1" parent="WIyWlLk6GJQsqaUBKTNV-1" source="GgZVNmPCMcxNd7WETc2Y-6" target="GgZVNmPCMcxNd7WETc2Y-7">
          <mxGeometry relative="1" as="geometry" />
        </mxCell>
        <mxCell id="GgZVNmPCMcxNd7WETc2Y-14" style="edgeStyle=orthogonalEdgeStyle;rounded=0;orthogonalLoop=1;jettySize=auto;html=1;entryX=1;entryY=0.5;entryDx=0;entryDy=0;" edge="1" parent="WIyWlLk6GJQsqaUBKTNV-1" source="GgZVNmPCMcxNd7WETc2Y-6" target="GgZVNmPCMcxNd7WETc2Y-4">
          <mxGeometry relative="1" as="geometry">
            <Array as="points">
              <mxPoint x="425" y="500" />
              <mxPoint x="425" y="310" />
            </Array>
          </mxGeometry>
        </mxCell>
        <mxCell id="GgZVNmPCMcxNd7WETc2Y-6" value="i++" style="rounded=0;whiteSpace=wrap;html=1;" vertex="1" parent="WIyWlLk6GJQsqaUBKTNV-1">
          <mxGeometry x="292.5" y="480" width="75" height="40" as="geometry" />
        </mxCell>
        <mxCell id="GgZVNmPCMcxNd7WETc2Y-7" value="stop" style="ellipse;whiteSpace=wrap;html=1;" vertex="1" parent="WIyWlLk6GJQsqaUBKTNV-1">
          <mxGeometry x="285" y="560" width="90" height="50" as="geometry" />
        </mxCell>
      </root>
    </mxGraphModel>
  </diagram>
</mxfile>
